<svg width="1280" height="640" viewBox="0 0 1280 640" fill="none" xmlns="http://www.w3.org/2000/svg">
  <defs>
    <linearGradient id="bg" x1="84" y1="76" x2="1180" y2="578" gradientUnits="userSpaceOnUse">
      <stop stop-color="#0F1024"/>
      <stop offset="1" stop-color="#151136"/>
    </linearGradient>
    <linearGradient id="panel" x1="224" y1="96" x2="1056" y2="544" gradientUnits="userSpaceOnUse">
      <stop stop-color="#19143C" stop-opacity="0.96"/>
      <stop offset="1" stop-color="#0D0E20" stop-opacity="0.92"/>
    </linearGradient>
    <linearGradient id="aqua" x1="208" y1="174" x2="1168" y2="174" gradientUnits="userSpaceOnUse">
      <stop stop-color="#73F2E3"/>
      <stop offset="1" stop-color="#50E8FF"/>
    </linearGradient>
    <linearGradient id="violet" x1="424" y1="128" x2="884" y2="494" gradientUnits="userSpaceOnUse">
      <stop stop-color="#D485FF"/>
      <stop offset="1" stop-color="#8B5BFF"/>
    </linearGradient>
    <radialGradient id="glow" cx="0" cy="0" r="1" gradientUnits="userSpaceOnUse" gradientTransform="translate(930 152) rotate(127.88) scale(332.1 548.63)">
      <stop stop-color="#A65BFF" stop-opacity="0.28"/>
      <stop offset="1" stop-color="#A65BFF" stop-opacity="0"/>
    </radialGradient>
    <filter id="soft-shadow" x="0" y="0" width="1280" height="640" filterUnits="userSpaceOnUse" color-interpolation-filters="sRGB">
      <feDropShadow dx="0" dy="18" stdDeviation="28" flood-color="#000000" flood-opacity="0.35"/>
    </filter>
    <filter id="glow-shadow" x="0" y="0" width="1280" height="640" filterUnits="userSpaceOnUse" color-interpolation-filters="sRGB">
      <feDropShadow dx="0" dy="0" stdDeviation="10" flood-color="#73F2E3" flood-opacity="0.35"/>
      <feDropShadow dx="0" dy="0" stdDeviation="18" flood-color="#9D68FF" flood-opacity="0.22"/>
    </filter>
  </defs>

  <rect width="1280" height="640" rx="40" fill="#080912"/>
  <rect x="28" y="28" width="1224" height="584" rx="34" fill="url(#bg)"/>
  <circle cx="1084" cy="110" r="208" fill="url(#glow)"/>
  <circle cx="208" cy="538" r="160" fill="#101633" opacity="0.55"/>

  <g filter="url(#soft-shadow)">
    <rect x="104" y="84" width="1072" height="472" rx="36" fill="url(#panel)" stroke="#30256C" stroke-width="2"/>
  </g>

  <path d="M170 214H455" stroke="url(#aqua)" stroke-width="2" opacity="0.55"/>
  <path d="M170 242H408" stroke="url(#aqua)" stroke-width="2" opacity="0.22"/>
  <path d="M170 270H360" stroke="url(#aqua)" stroke-width="2" opacity="0.16"/>

  <g filter="url(#glow-shadow)">
    <rect x="728" y="158" width="248" height="186" rx="30" stroke="#78F6EB" stroke-width="10"/>
  </g>
  <rect x="762" y="198" width="180" height="108" rx="16" fill="#0D132B" stroke="#26305F" stroke-width="4"/>
  <path d="M790 306H914" stroke="#DCE4FF" stroke-width="8" stroke-linecap="round" opacity="0.65"/>
  <path d="M812 338H892" stroke="#DCE4FF" stroke-width="8" stroke-linecap="round" opacity="0.45"/>

  <circle cx="852" cy="270" r="90" fill="url(#violet)"/>
  <circle cx="820" cy="214" r="18" fill="#BB7DFF"/>
  <circle cx="885" cy="194" r="18" fill="#BB7DFF"/>
  <circle cx="919" cy="234" r="18" fill="#BB7DFF"/>
  <circle cx="784" cy="254" r="18" fill="#BB7DFF"/>
  <circle cx="852" cy="266" r="12" fill="#1A1334"/>
  <circle cx="894" cy="266" r="12" fill="#1A1334"/>
  <path d="M850 299C861 311 885 311 896 299" stroke="#1A1334" stroke-width="7" stroke-linecap="round"/>
  <circle cx="832" cy="288" r="7" fill="#FF9FCB"/>
  <circle cx="916" cy="288" r="7" fill="#FF9FCB"/>
  <path d="M786 321C764 333 743 362 738 393" stroke="#B66DFF" stroke-width="18" stroke-linecap="round"/>
  <path d="M821 340C801 360 788 394 789 435" stroke="#B66DFF" stroke-width="18" stroke-linecap="round"/>
  <path d="M852 350C842 375 839 414 844 459" stroke="#B66DFF" stroke-width="18" stroke-linecap="round"/>
  <path d="M887 344C892 371 897 409 908 452" stroke="#B66DFF" stroke-width="18" stroke-linecap="round"/>
  <path d="M918 324C939 338 960 367 968 394" stroke="#B66DFF" stroke-width="18" stroke-linecap="round"/>
  <path d="M804 314C782 308 758 312 739 328" stroke="#B66DFF" stroke-width="18" stroke-linecap="round"/>
  <path d="M922 315C944 309 967 314 986 329" stroke="#B66DFF" stroke-width="18" stroke-linecap="round"/>
  <circle cx="739" cy="393" r="7" fill="#DFD4FF"/>
  <circle cx="789" cy="435" r="7" fill="#DFD4FF"/>
  <circle cx="844" cy="459" r="7" fill="#DFD4FF"/>
  <circle cx="908" cy="452" r="7" fill="#DFD4FF"/>
  <circle cx="968" cy="394" r="7" fill="#DFD4FF"/>

  <text x="168" y="338" fill="#F7F6FF" font-family="Segoe UI, Arial, sans-serif" font-size="74" font-weight="800" letter-spacing="1.5">
    KRAKEN UNLEASHED
  </text>
  <text x="168" y="394" fill="#B7BEDB" font-family="Segoe UI, Arial, sans-serif" font-size="28" font-weight="500">
    Direct GIF deployment for supported LCD coolers from a native desktop app.
  </text>

  <g>
    <rect x="168" y="446" width="212" height="42" rx="21" fill="#131A37" stroke="#26426A"/>
    <text x="194" y="473" fill="#73F2E3" font-family="Segoe UI, Arial, sans-serif" font-size="20" font-weight="700">Windows Native</text>
  </g>
  <g>
    <rect x="394" y="446" width="246" height="42" rx="21" fill="#191435" stroke="#5A3BC3"/>
    <text x="419" y="473" fill="#E1C0FF" font-family="Segoe UI, Arial, sans-serif" font-size="20" font-weight="700">Electron + Rust</text>
  </g>
  <g>
    <rect x="654" y="446" width="220" height="42" rx="21" fill="#131A37" stroke="#2A5666"/>
    <text x="680" y="473" fill="#8FF4E7" font-family="Segoe UI, Arial, sans-serif" font-size="20" font-weight="700">GIF Deploys</text>
  </g>
</svg>
